<?xml version="1.0" encoding="UTF-8"?>
<svg width="208px" height="73px" viewBox="0 0 208 73" version="1.1" xmlns="http://www.w3.org/2000/svg" xmlns:xlink="http://www.w3.org/1999/xlink">
    <!-- Generator: Sketch 51.3 (57544) - http://www.bohemiancoding.com/sketch -->
    <title>logos/bcak-logo copy</title>
    <desc>Created with Sketch.</desc>
    <defs></defs>
    <g id="Homepage" stroke="none" stroke-width="1" fill="none" fill-rule="evenodd">
        <g id="Homepage_desktop" transform="translate(-235.000000, -18.000000)">
            <g id="header">
                <g id="logos/bcak-logo-copy" transform="translate(234.000000, 18.000000)">
                    <path d="M77.8210215,30.2103209 L77.8210215,32.9651827 L78.3522772,32.9651827 C78.6018657,32.9651827 78.7974679,32.9291919 78.9383015,32.8564279 C79.0783527,32.7844462 79.1863251,32.6835155 79.2583067,32.554418 C79.3310708,32.426103 79.3748857,32.2727508 79.3920987,32.095144 C79.4077469,31.9183196 79.4155709,31.7250646 79.4155709,31.515379 C79.4155709,31.2978693 79.4030524,31.1085263 79.3795801,30.9473501 C79.3553255,30.7861738 79.3068161,30.6500347 79.2348345,30.5365854 C79.1534639,30.4239185 79.0447091,30.3409832 78.90857,30.2893442 C78.770866,30.2369228 78.5893471,30.2103209 78.3640133,30.2103209 L77.8210215,30.2103209 Z M77.8210215,26.7544206 L77.8210215,29.1227725 L78.3765319,29.1227725 C78.7872966,29.1227725 79.0627045,29.0202769 79.2051029,28.8145033 C79.3451541,28.6095122 79.4155709,28.3090672 79.4155709,27.9147331 C79.4155709,27.5282231 79.3365476,27.2379493 79.1800659,27.0446943 C79.0228017,26.8514393 78.7387872,26.7544206 78.3272401,26.7544206 L77.8210215,26.7544206 Z M76.5887275,34.1974768 L76.5887275,25.5948906 L78.3890504,25.5948906 C78.7826021,25.5948906 79.119038,25.6551361 79.3975755,25.7764095 C79.6753307,25.8969004 79.9030117,26.0580767 80.0806185,26.2591558 C80.2566605,26.4610173 80.3834108,26.6926103 80.4608693,26.9539349 C80.5375453,27.2160419 80.5758834,27.4883202 80.5758834,27.769205 L80.5758834,28.0837334 C80.5758834,28.3176737 80.5571056,28.5148407 80.5211148,28.676017 C80.4851239,28.8371932 80.4303553,28.9780268 80.3575913,29.0985178 C80.2206697,29.324634 80.0117665,29.517889 79.7293169,29.6790652 C80.0195906,29.8159868 80.2331883,30.0170659 80.3701098,30.2830849 C80.5078138,30.5491039 80.5758834,30.9113593 80.5758834,31.3698509 L80.5758834,31.854162 C80.5758834,32.6107515 80.3920173,33.1912989 80.0250675,33.5934571 C79.6589001,33.9963977 79.0728758,34.1974768 78.267777,34.1974768 L76.5887275,34.1974768 Z" id="Fill-1" fill="#4D4E4E"></path>
                    <path d="M82.9677857,26.7548118 L82.9677857,29.4369096 L83.6688241,29.4369096 C83.8863338,29.4369096 84.0600286,29.4071781 84.1883437,29.3469326 C84.3174411,29.2859047 84.4183719,29.1998397 84.4903535,29.0863904 C84.554511,28.9737235 84.5991083,28.8352372 84.623363,28.6701489 C84.6476177,28.5050606 84.6593538,28.3133704 84.6593538,28.0958607 C84.6593538,27.878351 84.6476177,27.6874433 84.623363,27.5215726 C84.5991083,27.3572667 84.550599,27.2140859 84.4786174,27.0928125 C84.3244828,26.8682611 84.0349915,26.7548118 83.6077962,26.7548118 L82.9677857,26.7548118 Z M81.7354917,34.197868 L81.7354917,25.5944994 L83.7173335,25.5944994 C85.1671372,25.5944994 85.8916479,26.4363714 85.8916479,28.1201154 C85.8916479,28.6278988 85.813407,29.0582237 85.6561428,29.412655 C85.4988786,29.7678686 85.2234707,30.0534479 84.8291366,30.2709576 L86.1576669,34.197868 L84.8526088,34.197868 L83.7048149,30.524458 L82.9677857,30.524458 L82.9677857,34.197868 L81.7354917,34.197868 Z" id="Fill-3" fill="#4D4E4E"></path>
                    <polygon id="Fill-5" fill="#4D4E4E" points="86.9184814 34.1980245 88.1507754 34.1980245 88.1507754 25.5946559 86.9184814 25.5946559"></polygon>
                    <polygon id="Fill-7" fill="#4D4E4E" points="90.1569502 34.1976333 90.1569502 26.7545771 88.7314011 26.7545771 88.7314011 25.5942647 92.8147933 25.5942647 92.8147933 26.7545771 91.3892442 26.7545771 91.3892442 34.1976333"></polygon>
                    <polygon id="Fill-8" fill="#4D4E4E" points="93.3952625 34.1980245 94.6275566 34.1980245 94.6275566 25.5946559 93.3952625 25.5946559"></polygon>
                    <path d="M99.8109375,28.0716843 L98.5786434,28.0716843 L98.5786434,27.7939291 C98.5786434,27.5122619 98.5121387,27.2681503 98.3791291,27.0631592 C98.2461196,26.8573856 98.0231331,26.7548901 97.7078223,26.7548901 C97.5396044,26.7548901 97.4026828,26.7869688 97.29784,26.8511264 C97.1922148,26.9160663 97.108497,26.995872 97.0443395,27.0928907 C96.9793996,27.1977335 96.9348023,27.3166597 96.91133,27.4496692 C96.8870753,27.5826787 96.8745568,27.7211651 96.8745568,27.8659107 C96.8745568,28.0356935 96.880816,28.1765271 96.8933346,28.289194 C96.9050707,28.4018609 96.9348023,28.5027916 96.9833116,28.5912038 C97.031821,28.679616 97.1022378,28.7562921 97.194562,28.821232 C97.2876687,28.8853896 97.4144189,28.9503295 97.5755952,29.0144871 L98.5183979,29.3892609 C98.7914587,29.4933213 99.0128804,29.6169419 99.1826631,29.7569931 C99.3516634,29.8986091 99.484673,30.0613502 99.5809093,30.2467811 C99.6693215,30.4400361 99.7303494,30.659893 99.7624281,30.9055694 C99.7945069,31.1512458 99.8109375,31.4305658 99.8109375,31.7450942 C99.8109375,32.1073496 99.7741643,32.4437854 99.7021826,32.7536193 C99.630201,33.0642357 99.5128397,33.3279075 99.3516634,33.5454172 C99.1826631,33.7707509 98.9612414,33.9483578 98.6866159,34.0766728 C98.4135551,34.2057703 98.0786841,34.2699278 97.68435,34.2699278 C97.3854698,34.2699278 97.108497,34.2175064 96.8510845,34.1134461 C96.5928896,34.0086033 96.3714678,33.8630752 96.1860369,33.6784267 C96.000606,33.4929958 95.8535131,33.2778333 95.7455407,33.0313745 C95.6360034,32.7856981 95.5827996,32.5181142 95.5827996,32.2278405 L95.5827996,31.7693489 L96.8143113,31.7693489 L96.8143113,32.1558589 C96.8143113,32.3811927 96.880816,32.584619 97.0138256,32.7661379 C97.1468351,32.9468743 97.3698216,33.0376338 97.68435,33.0376338 C97.8940356,33.0376338 98.0567767,33.0079022 98.1733556,32.9468743 C98.2907169,32.8866289 98.3814764,32.7997815 98.4456339,32.6871146 C98.5097914,32.5744477 98.5481295,32.4398734 98.5598656,32.2826092 C98.5723842,32.125345 98.5786434,31.9508678 98.5786434,31.7568304 C98.5786434,31.5314966 98.5700369,31.3460657 98.5543887,31.20132 C98.5379582,31.055792 98.5058794,30.9399954 98.45737,30.8508008 C98.4010366,30.7616062 98.3267077,30.6896246 98.2336011,30.6332911 C98.1412768,30.5769577 98.0184386,30.5167122 97.8658689,30.4517723 L96.9833116,30.0895169 C96.452056,29.8720072 96.0952775,29.5840808 95.914541,29.2257375 C95.7330221,28.8673942 95.6422627,28.4182914 95.6422627,27.8784293 C95.6422627,27.5560768 95.68686,27.2501549 95.7760546,26.9606636 C95.8636844,26.6703899 95.996694,26.4208015 96.1743008,26.2111159 C96.3433011,26.0014303 96.5584636,25.8347772 96.8205706,25.7095917 C97.0826775,25.5844063 97.3940763,25.522596 97.757114,25.522596 C98.0630359,25.522596 98.3431383,25.5789294 98.5966388,25.6915963 C98.8493569,25.8042632 99.0699962,25.9529209 99.2546447,26.1383518 C99.6255066,26.5248618 99.8109375,26.9684877 99.8109375,27.4676646 L99.8109375,28.0716843 Z" id="Fill-9" fill="#4D4E4E"></path>
                    <polygon id="Fill-10" fill="#4D4E4E" points="100.728625 34.1976333 100.728625 25.5942647 101.961701 25.5942647 101.961701 29.2801931 103.483487 29.2801931 103.483487 25.5942647 104.716563 25.5942647 104.716563 34.1976333 103.483487 34.1976333 103.483487 30.3677415 101.961701 30.3677415 101.961701 34.1976333"></polygon>
                    <path d="M112.037642,31.7449377 L112.037642,32.2761934 C112.037642,32.5422124 111.98835,32.7941481 111.887419,33.0320004 C111.786489,33.2690703 111.64722,33.4811032 111.469613,33.6665341 C111.292789,33.8511826 111.08545,33.9982755 110.847598,34.1070303 C110.610528,34.2157851 110.35468,34.2705538 110.080837,34.2705538 C109.846897,34.2705538 109.609045,34.238475 109.368063,34.1735351 C109.126298,34.1085951 108.908789,33.9959282 108.715534,33.834752 C108.522279,33.6743582 108.36345,33.4670198 108.239046,33.2127369 C108.113079,32.9592364 108.050486,32.6353191 108.050486,32.2402026 L108.050486,27.5042813 C108.050486,27.2218317 108.098995,26.9605071 108.196014,26.7187428 C108.29225,26.4769784 108.429954,26.2672928 108.606779,26.089686 C108.784386,25.9128616 108.994854,25.7743752 109.241312,25.6734444 C109.486989,25.5725137 109.758485,25.5224395 110.057365,25.5224395 C110.63713,25.5224395 111.10814,25.7117825 111.469613,26.089686 C111.64722,26.2758993 111.786489,26.4949738 111.887419,26.7484743 C111.98835,27.0019748 112.037642,27.2781652 112.037642,27.576263 L112.037642,28.0597917 L110.80613,28.0597917 L110.80613,27.649027 C110.80613,27.4072626 110.737278,27.197577 110.600357,27.0207526 C110.463435,26.8431458 110.278004,26.7547336 110.044846,26.7547336 C109.738924,26.7547336 109.535498,26.8494051 109.434567,27.038748 C109.333637,27.228091 109.28278,27.4675081 109.28278,27.7577818 L109.28278,32.1557024 C109.28278,32.4052909 109.338331,32.6149765 109.446303,32.7839768 C109.555058,32.9529771 109.750661,33.0374773 110.032328,33.0374773 C110.112916,33.0374773 110.198981,33.0233939 110.29287,32.9952272 C110.385194,32.9670605 110.472042,32.9208984 110.551847,32.8559584 C110.624611,32.7918009 110.684857,32.7033887 110.733366,32.5907218 C110.781876,32.4780549 110.80613,32.3372213 110.80613,32.168221 L110.80613,31.7449377 L112.037642,31.7449377 Z" id="Fill-11" fill="#4D4E4E"></path>
                    <path d="M114.20069,32.1678298 C114.20069,32.4659276 114.282843,32.6857845 114.448713,32.8258357 C114.613801,32.9674517 114.808621,33.0378685 115.033955,33.0378685 C115.260071,33.0378685 115.455673,32.9674517 115.619979,32.8258357 C115.785068,32.6857845 115.868003,32.4659276 115.868003,32.1678298 L115.868003,27.6243811 C115.868003,27.3270657 115.785068,27.1072088 115.619979,26.9663752 C115.455673,26.8255416 115.260071,26.7551248 115.033955,26.7551248 C114.808621,26.7551248 114.613801,26.8255416 114.448713,26.9663752 C114.282843,27.1072088 114.20069,27.3270657 114.20069,27.6243811 L114.20069,32.1678298 Z M112.968396,27.6243811 C112.968396,27.277774 113.028641,26.9726345 113.149132,26.7066154 C113.271188,26.4405964 113.431582,26.2191747 113.632661,26.0415678 C113.825916,25.8725675 114.045773,25.7442524 114.291449,25.6550578 C114.537125,25.5666456 114.785149,25.5220483 115.033955,25.5220483 C115.284326,25.5220483 115.531567,25.5666456 115.778026,25.6550578 C116.02292,25.7442524 116.246689,25.8725675 116.44855,26.0415678 C116.641805,26.2191747 116.798287,26.4405964 116.919561,26.7066154 C117.040834,26.9726345 117.100297,27.277774 117.100297,27.6243811 L117.100297,32.1678298 C117.100297,32.5300851 117.040834,32.839919 116.919561,33.098114 C116.798287,33.3563089 116.641805,33.5699066 116.44855,33.7381245 C116.246689,33.9157313 116.02292,34.0487408 115.778026,34.137153 C115.531567,34.2255653 115.284326,34.2701626 115.033955,34.2701626 C114.785149,34.2701626 114.537125,34.2255653 114.291449,34.137153 C114.045773,34.0487408 113.825916,33.9157313 113.632661,33.7381245 C113.431582,33.5699066 113.271188,33.3563089 113.149132,33.098114 C113.028641,32.839919 112.968396,32.5300851 112.968396,32.1678298 L112.968396,27.6243811 Z" id="Fill-12" fill="#4D4E4E"></path>
                    <polygon id="Fill-13" fill="#4D4E4E" points="118.188393 34.1976333 118.188393 25.5942647 119.420687 25.5942647 119.420687 32.9653392 121.861021 32.9653392 121.861021 34.1976333"></polygon>
                    <path d="M126.646703,25.5945776 L126.646703,32.2646138 C126.646703,32.546281 126.595847,32.8060407 126.495698,33.043893 C126.394767,33.2817454 126.251587,33.4929958 126.066938,33.6784267 C125.880725,33.8630752 125.66791,34.0086033 125.425363,34.1134461 C125.184381,34.2175064 124.926968,34.2699278 124.652343,34.2699278 C124.379282,34.2699278 124.122652,34.2175064 123.885582,34.1134461 C123.64773,34.0086033 123.435697,33.8630752 123.251048,33.6784267 C123.065617,33.4929958 122.920089,33.2817454 122.816029,33.043893 C122.711969,32.8060407 122.658765,32.546281 122.658765,32.2646138 L122.658765,25.5945776 L123.891841,25.5945776 L123.891841,32.1441228 C123.891841,32.4500447 123.963823,32.6753784 124.108569,32.8201241 C124.253314,32.9648697 124.434833,33.0376338 124.652343,33.0376338 C124.869852,33.0376338 125.051371,32.9648697 125.196117,32.8201241 C125.341645,32.6753784 125.413627,32.4500447 125.413627,32.1441228 L125.413627,25.5945776 L126.646703,25.5945776 Z" id="Fill-14" fill="#4D4E4E"></path>
                    <polygon id="Fill-15" fill="#4D4E4E" points="127.805764 34.1976333 127.805764 25.5942647 128.990331 25.5942647 130.573144 30.1502319 130.597399 30.1502319 132.167694 25.5942647 133.363997 25.5942647 133.363997 34.1976333 132.131703 34.1976333 132.131703 28.9656647 132.107448 28.9656647 130.88689 32.6633293 130.270352 32.6633293 129.062312 28.9656647 129.03884 28.9656647 129.03884 34.1976333"></polygon>
                    <path d="M135.756682,30.2103209 L135.756682,32.9651827 L136.287937,32.9651827 C136.537526,32.9651827 136.733128,32.9291919 136.873961,32.8564279 C137.014795,32.7844462 137.121985,32.6835155 137.194749,32.554418 C137.266731,32.426103 137.310546,32.2727508 137.327759,32.095144 C137.343407,31.9183196 137.351231,31.7250646 137.351231,31.515379 C137.351231,31.2978693 137.339495,31.1085263 137.31524,30.9473501 C137.290985,30.7861738 137.242476,30.6500347 137.170494,30.5365854 C137.089124,30.4239185 136.980369,30.3409832 136.84423,30.2893442 C136.706526,30.2369228 136.525007,30.2103209 136.299673,30.2103209 L135.756682,30.2103209 Z M135.756682,26.7544206 L135.756682,29.1227725 L136.312192,29.1227725 C136.722957,29.1227725 136.999147,29.0202769 137.140763,28.8145033 C137.280814,28.6095122 137.351231,28.3090672 137.351231,27.9147331 C137.351231,27.5282231 137.272208,27.2379493 137.115726,27.0446943 C136.958462,26.8514393 136.674447,26.7544206 136.263683,26.7544206 L135.756682,26.7544206 Z M134.524387,34.1974768 L134.524387,25.5948906 L136.32471,25.5948906 C136.718262,25.5948906 137.054698,25.6551361 137.334018,25.7764095 C137.610991,25.8969004 137.838672,26.0580767 138.016279,26.2591558 C138.192321,26.4610173 138.319853,26.6926103 138.396529,26.9539349 C138.473205,27.2160419 138.511543,27.4883202 138.511543,27.769205 L138.511543,28.0837334 C138.511543,28.3176737 138.493548,28.5148407 138.456775,28.676017 C138.420784,28.8371932 138.366015,28.9780268 138.294034,29.0985178 C138.15633,29.324634 137.948209,29.517889 137.664977,29.6790652 C137.956033,29.8159868 138.168848,30.0170659 138.306552,30.2830849 C138.443474,30.5491039 138.511543,30.9113593 138.511543,31.3698509 L138.511543,31.854162 C138.511543,32.6107515 138.32846,33.1912989 137.96151,33.5934571 C137.595343,33.9963977 137.009318,34.1974768 136.203437,34.1974768 L134.524387,34.1974768 Z" id="Fill-16" fill="#4D4E4E"></path>
                    <polygon id="Fill-17" fill="#4D4E4E" points="139.707612 34.1980245 140.939906 34.1980245 140.939906 25.5946559 139.707612 25.5946559"></polygon>
                    <path d="M144.625287,31.1891144 L144.021267,28.0719973 L143.99623,28.0719973 L143.392993,31.1891144 L144.625287,31.1891144 Z M141.580151,34.1974768 L143.500965,25.5948906 L144.52905,25.5948906 L146.449082,34.1974768 L145.21757,34.1974768 L144.855315,32.3486445 L143.175483,32.3486445 L142.813228,34.1974768 L141.580151,34.1974768 Z" id="Fill-18" fill="#4D4E4E"></path>
                    <path d="M151.789962,31.1891144 L151.185942,28.0719973 L151.161687,28.0719973 L150.557668,31.1891144 L151.789962,31.1891144 Z M148.744826,34.1974768 L150.66564,25.5948906 L151.693726,25.5948906 L153.614539,34.1974768 L152.382245,34.1974768 L152.01999,32.3486445 L150.340158,32.3486445 L149.977903,34.1974768 L148.744826,34.1974768 Z" id="Fill-19" fill="#4D4E4E"></path>
                    <path d="M158.205872,28.0716843 L156.973577,28.0716843 L156.973577,27.7939291 C156.973577,27.5122619 156.907073,27.2681503 156.774063,27.0631592 C156.641054,26.8573856 156.418067,26.7548901 156.102756,26.7548901 C155.934538,26.7548901 155.797617,26.7869688 155.691992,26.8511264 C155.587149,26.9160663 155.503431,26.995872 155.439274,27.0928907 C155.374334,27.1977335 155.329736,27.3166597 155.306264,27.4496692 C155.282009,27.5826787 155.269491,27.7211651 155.269491,27.8659107 C155.269491,28.0356935 155.27575,28.1765271 155.288269,28.289194 C155.300005,28.4018609 155.329736,28.5027916 155.378246,28.5912038 C155.426755,28.679616 155.497172,28.7562921 155.589496,28.821232 C155.68182,28.8853896 155.809353,28.9503295 155.970529,29.0144871 L156.913332,29.3892609 C157.186393,29.4933213 157.407814,29.6169419 157.576815,29.7569931 C157.746597,29.8986091 157.879607,30.0613502 157.975843,30.2467811 C158.064256,30.4400361 158.124501,30.659893 158.157362,30.9055694 C158.189441,31.1512458 158.205872,31.4305658 158.205872,31.7450942 C158.205872,32.1073496 158.169098,32.4437854 158.097117,32.7536193 C158.025135,33.0642357 157.907774,33.3279075 157.746597,33.5454172 C157.576815,33.7707509 157.356175,33.9483578 157.08155,34.0766728 C156.808489,34.2057703 156.473618,34.2699278 156.078502,34.2699278 C155.780404,34.2699278 155.503431,34.2175064 155.246019,34.1134461 C154.987824,34.0086033 154.766402,33.8630752 154.580189,33.6784267 C154.39554,33.4929958 154.248447,33.2778333 154.140475,33.0313745 C154.030937,32.7856981 153.976951,32.5181142 153.976951,32.2278405 L153.976951,31.7693489 L155.209245,31.7693489 L155.209245,32.1558589 C155.209245,32.3811927 155.27575,32.584619 155.40876,32.7661379 C155.541769,32.9468743 155.764756,33.0376338 156.078502,33.0376338 C156.288187,33.0376338 156.451711,33.0079022 156.56829,32.9468743 C156.685651,32.8866289 156.77641,32.7997815 156.840568,32.6871146 C156.904725,32.5744477 156.943064,32.4398734 156.9548,32.2826092 C156.967318,32.125345 156.973577,31.9508678 156.973577,31.7568304 C156.973577,31.5314966 156.964971,31.3460657 156.949323,31.20132 C156.932892,31.055792 156.900813,30.9399954 156.852304,30.8508008 C156.795971,30.7616062 156.721642,30.6896246 156.628535,30.6332911 C156.536211,30.5769577 156.413373,30.5167122 156.260803,30.4517723 L155.378246,30.0895169 C154.84699,29.8720072 154.490212,29.5840808 154.309475,29.2257375 C154.127956,28.8673942 154.037197,28.4182914 154.037197,27.8784293 C154.037197,27.5560768 154.081794,27.2501549 154.170206,26.9606636 C154.258618,26.6703899 154.391628,26.4208015 154.569235,26.2111159 C154.737453,26.0014303 154.953398,25.8347772 155.215505,25.7095917 C155.477612,25.5844063 155.78901,25.522596 156.152048,25.522596 C156.45797,25.522596 156.738072,25.5789294 156.991573,25.6915963 C157.244291,25.8042632 157.46493,25.9529209 157.649579,26.1383518 C158.020441,26.5248618 158.205872,26.9684877 158.205872,27.4676646 L158.205872,28.0716843 Z" id="Fill-20" fill="#4D4E4E"></path>
                    <path d="M163.111184,28.0716843 L161.87889,28.0716843 L161.87889,27.7939291 C161.87889,27.5122619 161.812385,27.2681503 161.679376,27.0631592 C161.546366,26.8573856 161.32338,26.7548901 161.008069,26.7548901 C160.839851,26.7548901 160.70293,26.7869688 160.598087,26.8511264 C160.492462,26.9160663 160.408744,26.995872 160.344586,27.0928907 C160.279646,27.1977335 160.235049,27.3166597 160.211577,27.4496692 C160.187322,27.5826787 160.174804,27.7211651 160.174804,27.8659107 C160.174804,28.0356935 160.181063,28.1765271 160.193581,28.289194 C160.205318,28.4018609 160.235049,28.5027916 160.283558,28.5912038 C160.332068,28.679616 160.402485,28.7562921 160.494809,28.821232 C160.587916,28.8853896 160.714666,28.9503295 160.875842,29.0144871 L161.818645,29.3892609 C162.091705,29.4933213 162.313127,29.6169419 162.482128,29.7569931 C162.65191,29.8986091 162.78492,30.0613502 162.881156,30.2467811 C162.969568,30.4400361 163.030596,30.659893 163.062675,30.9055694 C163.094754,31.1512458 163.111184,31.4305658 163.111184,31.7450942 C163.111184,32.1073496 163.074411,32.4437854 163.002429,32.7536193 C162.930448,33.0642357 162.813087,33.3279075 162.65191,33.5454172 C162.482128,33.7707509 162.261488,33.9483578 161.986863,34.0766728 C161.713802,34.2057703 161.378931,34.2699278 160.983814,34.2699278 C160.685717,34.2699278 160.408744,34.2175064 160.151331,34.1134461 C159.893136,34.0086033 159.671715,33.8630752 159.485501,33.6784267 C159.300853,33.4929958 159.15376,33.2778333 159.045788,33.0313745 C158.93625,32.7856981 158.882264,32.5181142 158.882264,32.2278405 L158.882264,31.7693489 L160.114558,31.7693489 L160.114558,32.1558589 C160.114558,32.3811927 160.181063,32.584619 160.314072,32.7661379 C160.447082,32.9468743 160.670068,33.0376338 160.983814,33.0376338 C161.1935,33.0376338 161.357023,33.0079022 161.473602,32.9468743 C161.590964,32.8866289 161.681723,32.7997815 161.745881,32.6871146 C161.810038,32.5744477 161.848376,32.4398734 161.860112,32.2826092 C161.872631,32.125345 161.87889,31.9508678 161.87889,31.7568304 C161.87889,31.5314966 161.870284,31.3460657 161.854636,31.20132 C161.838205,31.055792 161.806126,30.9399954 161.757617,30.8508008 C161.701283,30.7616062 161.626955,30.6896246 161.533848,30.6332911 C161.441524,30.5769577 161.318685,30.5167122 161.166116,30.4517723 L160.283558,30.0895169 C159.752303,29.8720072 159.395524,29.5840808 159.214788,29.2257375 C159.033269,28.8673942 158.94251,28.4182914 158.94251,27.8784293 C158.94251,27.5560768 158.987107,27.2501549 159.075519,26.9606636 C159.163931,26.6703899 159.296941,26.4208015 159.474548,26.2111159 C159.642766,26.0014303 159.85871,25.8347772 160.120817,25.7095917 C160.382924,25.5844063 160.694323,25.522596 161.057361,25.522596 C161.363283,25.522596 161.643385,25.5789294 161.896886,25.6915963 C162.149604,25.8042632 162.370243,25.9529209 162.554892,26.1383518 C162.925753,26.5248618 163.111184,26.9684877 163.111184,27.4676646 L163.111184,28.0716843 Z" id="Fill-21" fill="#4D4E4E"></path>
                    <path d="M165.188715,32.1678298 C165.188715,32.4659276 165.27165,32.6857845 165.436738,32.8258357 C165.601827,32.9674517 165.796646,33.0378685 166.022763,33.0378685 C166.248096,33.0378685 166.443699,32.9674517 166.608787,32.8258357 C166.773875,32.6857845 166.856028,32.4659276 166.856028,32.1678298 L166.856028,27.6243811 C166.856028,27.3270657 166.773875,27.1072088 166.608787,26.9663752 C166.443699,26.8255416 166.248096,26.7551248 166.022763,26.7551248 C165.796646,26.7551248 165.601827,26.8255416 165.436738,26.9663752 C165.27165,27.1072088 165.188715,27.3270657 165.188715,27.6243811 L165.188715,32.1678298 Z M163.957203,27.6243811 C163.957203,27.277774 164.016666,26.9726345 164.13794,26.7066154 C164.259213,26.4405964 164.419607,26.2191747 164.620686,26.0415678 C164.813941,25.8725675 165.033798,25.7442524 165.279474,25.6550578 C165.525151,25.5666456 165.773174,25.5220483 166.022763,25.5220483 C166.272351,25.5220483 166.519592,25.5666456 166.766051,25.6550578 C167.011728,25.7442524 167.234714,25.8725675 167.436576,26.0415678 C167.629831,26.2191747 167.786312,26.4405964 167.908368,26.7066154 C168.028859,26.9726345 168.089105,27.277774 168.089105,27.6243811 L168.089105,32.1678298 C168.089105,32.5300851 168.028859,32.839919 167.908368,33.098114 C167.786312,33.3563089 167.629831,33.5699066 167.436576,33.7381245 C167.234714,33.9157313 167.011728,34.0487408 166.766051,34.137153 C166.519592,34.2255653 166.272351,34.2701626 166.022763,34.2701626 C165.773174,34.2701626 165.525151,34.2255653 165.279474,34.137153 C165.033798,34.0487408 164.813941,33.9157313 164.620686,33.7381245 C164.419607,33.5699066 164.259213,33.3563089 164.13794,33.098114 C164.016666,32.839919 163.957203,32.5300851 163.957203,32.1678298 L163.957203,27.6243811 Z" id="Fill-22" fill="#4D4E4E"></path>
                    <path d="M173.090732,31.7449377 L173.090732,32.2761934 C173.090732,32.5422124 173.040658,32.7941481 172.940509,33.0320004 C172.839579,33.2690703 172.70031,33.4811032 172.522703,33.6665341 C172.345879,33.8511826 172.13854,33.9982755 171.900688,34.1070303 C171.663618,34.2157851 171.40777,34.2705538 171.133927,34.2705538 C170.899987,34.2705538 170.662135,34.238475 170.421153,34.1735351 C170.179388,34.1085951 169.961879,33.9959282 169.768624,33.834752 C169.575369,33.6743582 169.41654,33.4670198 169.291354,33.2127369 C169.166169,32.9592364 169.103576,32.6353191 169.103576,32.2402026 L169.103576,27.5042813 C169.103576,27.2218317 169.152085,26.9605071 169.249104,26.7187428 C169.34534,26.4769784 169.482262,26.2672928 169.659086,26.089686 C169.836693,25.9128616 170.047944,25.7743752 170.294402,25.6734444 C170.540079,25.5725137 170.811575,25.5224395 171.110455,25.5224395 C171.689438,25.5224395 172.16123,25.7117825 172.522703,26.089686 C172.70031,26.2758993 172.839579,26.4949738 172.940509,26.7484743 C173.040658,27.0019748 173.090732,27.2781652 173.090732,27.576263 L173.090732,28.0597917 L171.85922,28.0597917 L171.85922,27.649027 C171.85922,27.4072626 171.790368,27.197577 171.653447,27.0207526 C171.516525,26.8431458 171.331094,26.7547336 171.097936,26.7547336 C170.791232,26.7547336 170.587806,26.8494051 170.487657,27.038748 C170.386727,27.228091 170.33587,27.4675081 170.33587,27.7577818 L170.33587,32.1557024 C170.33587,32.4052909 170.390639,32.6149765 170.499394,32.7839768 C170.608148,32.9529771 170.802968,33.0374773 171.085418,33.0374773 C171.166006,33.0374773 171.252071,33.0233939 171.345178,32.9952272 C171.438284,32.9670605 171.524349,32.9208984 171.604937,32.8559584 C171.677701,32.7918009 171.737947,32.7033887 171.786456,32.5907218 C171.834966,32.4780549 171.85922,32.3372213 171.85922,32.168221 L171.85922,31.7449377 L173.090732,31.7449377 Z" id="Fill-23" fill="#4D4E4E"></path>
                    <polygon id="Fill-24" fill="#4D4E4E" points="174.130475 34.1980245 175.361987 34.1980245 175.361987 25.5946559 174.130475 25.5946559"></polygon>
                    <path d="M179.048228,31.1891144 L178.444209,28.0719973 L178.419172,28.0719973 L177.815152,31.1891144 L179.048228,31.1891144 Z M176.003093,34.1974768 L177.923907,25.5948906 L178.95121,25.5948906 L180.872024,34.1974768 L179.639729,34.1974768 L179.277474,32.3486445 L177.597642,32.3486445 L177.235387,34.1974768 L176.003093,34.1974768 Z" id="Fill-25" fill="#4D4E4E"></path>
                    <polygon id="Fill-26" fill="#4D4E4E" points="181.621571 34.1976333 181.621571 26.7545771 180.196022 26.7545771 180.196022 25.5942647 184.279414 25.5942647 184.279414 26.7545771 182.853083 26.7545771 182.853083 34.1976333"></polygon>
                    <polygon id="Fill-27" fill="#4D4E4E" points="184.859649 34.1980245 186.091161 34.1980245 186.091161 25.5946559 184.859649 25.5946559"></polygon>
                    <path d="M188.447776,32.1678298 C188.447776,32.4659276 188.529929,32.6857845 188.695017,32.8258357 C188.860106,32.9674517 189.055708,33.0378685 189.281042,33.0378685 C189.507158,33.0378685 189.70276,32.9674517 189.867066,32.8258357 C190.032154,32.6857845 190.11509,32.4659276 190.11509,32.1678298 L190.11509,27.6243811 C190.11509,27.3270657 190.032154,27.1072088 189.867066,26.9663752 C189.70276,26.8255416 189.507158,26.7551248 189.281042,26.7551248 C189.055708,26.7551248 188.860106,26.8255416 188.695017,26.9663752 C188.529929,27.1072088 188.447776,27.3270657 188.447776,27.6243811 L188.447776,32.1678298 Z M187.215482,27.6243811 C187.215482,27.277774 187.275728,26.9726345 187.396219,26.7066154 C187.518274,26.4405964 187.678668,26.2191747 187.879747,26.0415678 C188.073002,25.8725675 188.292859,25.7442524 188.537753,25.6550578 C188.784212,25.5666456 189.032236,25.5220483 189.281042,25.5220483 C189.531413,25.5220483 189.778654,25.5666456 190.02433,25.6550578 C190.270007,25.7442524 190.493776,25.8725675 190.695637,26.0415678 C190.888892,26.2191747 191.045374,26.4405964 191.166647,26.7066154 C191.287921,26.9726345 191.347384,27.277774 191.347384,27.6243811 L191.347384,32.1678298 C191.347384,32.5300851 191.287921,32.839919 191.166647,33.098114 C191.045374,33.3563089 190.888892,33.5699066 190.695637,33.7381245 C190.493776,33.9157313 190.270007,34.0487408 190.02433,34.137153 C189.778654,34.2255653 189.531413,34.2701626 189.281042,34.2701626 C189.032236,34.2701626 188.784212,34.2255653 188.537753,34.137153 C188.292859,34.0487408 188.073002,33.9157313 187.879747,33.7381245 C187.678668,33.5699066 187.518274,33.3563089 187.396219,33.098114 C187.275728,32.839919 187.215482,32.5300851 187.215482,32.1678298 L187.215482,27.6243811 Z" id="Fill-28" fill="#4D4E4E"></path>
                    <polygon id="Fill-29" fill="#4D4E4E" points="192.387362 34.1976333 192.387362 25.5942647 193.571146 25.5942647 195.431715 30.7777238 195.455969 30.7777238 195.455969 25.5942647 196.688264 25.5942647 196.688264 34.1976333 195.528734 34.1976333 193.643128 29.0266926 193.618873 29.0266926 193.618873 34.1976333"></polygon>
                    <path d="M201.206284,32.1678298 C201.206284,32.4659276 201.289219,32.6857845 201.454308,32.8258357 C201.619396,32.9674517 201.814216,33.0378685 202.040332,33.0378685 C202.265666,33.0378685 202.461268,32.9674517 202.626356,32.8258357 C202.791444,32.6857845 202.873597,32.4659276 202.873597,32.1678298 L202.873597,27.6243811 C202.873597,27.3270657 202.791444,27.1072088 202.626356,26.9663752 C202.461268,26.8255416 202.265666,26.7551248 202.040332,26.7551248 C201.814216,26.7551248 201.619396,26.8255416 201.454308,26.9663752 C201.289219,27.1072088 201.206284,27.3270657 201.206284,27.6243811 L201.206284,32.1678298 Z M199.974772,27.6243811 C199.974772,27.277774 200.034235,26.9726345 200.155509,26.7066154 C200.276782,26.4405964 200.437176,26.2191747 200.638255,26.0415678 C200.83151,25.8725675 201.051367,25.7442524 201.297043,25.6550578 C201.54272,25.5666456 201.790743,25.5220483 202.040332,25.5220483 C202.28992,25.5220483 202.537162,25.5666456 202.78362,25.6550578 C203.029297,25.7442524 203.252283,25.8725675 203.454145,26.0415678 C203.6474,26.2191747 203.803882,26.4405964 203.925937,26.7066154 C204.046428,26.9726345 204.106674,27.277774 204.106674,27.6243811 L204.106674,32.1678298 C204.106674,32.5300851 204.046428,32.839919 203.925937,33.098114 C203.803882,33.3563089 203.6474,33.5699066 203.454145,33.7381245 C203.252283,33.9157313 203.029297,34.0487408 202.78362,34.137153 C202.537162,34.2255653 202.28992,34.2701626 202.040332,34.2701626 C201.790743,34.2701626 201.54272,34.2255653 201.297043,34.137153 C201.051367,34.0487408 200.83151,33.9157313 200.638255,33.7381245 C200.437176,33.5699066 200.276782,33.3563089 200.155509,33.098114 C200.034235,32.839919 199.974772,32.5300851 199.974772,32.1678298 L199.974772,27.6243811 Z" id="Fill-30" fill="#4D4E4E"></path>
                    <polygon id="Fill-31" fill="#4D4E4E" points="205.193988 34.1976333 205.193988 25.5942647 208.866615 25.5942647 208.866615 26.7545771 206.426282 26.7545771 206.426282 29.3646933 208.552869 29.3646933 208.552869 30.5242233 206.426282 30.5242233 206.426282 34.1976333"></polygon>
                    <polygon id="Fill-32" fill="#4D4E4E" points="76.7474782 58.8828697 76.7474782 41.4257617 79.4303585 41.4257617 79.4303585 49.3938142 79.4835623 49.3938142 83.4026486 41.4257617 86.0855288 41.4257617 82.4293319 48.4134558 86.7701366 58.8828697 83.9284274 58.8828697 80.8770326 51.1346741 79.4303585 53.6602901 79.4303585 58.8828697"></polygon>
                    <polygon id="Fill-33" fill="#4D4E4E" points="88.0318493 58.8822438 90.7147295 58.8822438 90.7147295 41.4251357 88.0318493 41.4251357"></polygon>
                    <polygon id="Fill-34" fill="#4D4E4E" points="93.2139784 58.8828697 93.2139784 41.4257617 95.7912334 41.4257617 99.8425468 51.9436849 99.8949682 51.9436849 99.8949682 41.4257617 102.578631 41.4257617 102.578631 58.8828697 100.053015 58.8828697 95.94928 48.3884187 95.897641 48.3884187 95.897641 58.8828697"></polygon>
                    <polygon id="Fill-35" fill="#4D4E4E" points="104.99823 58.8828697 104.99823 41.4257617 112.99445 41.4257617 112.99445 43.7792477 107.681111 43.7792477 107.681111 48.9040262 112.311407 48.9040262 112.311407 51.2575123 107.681111 51.2575123 107.681111 56.3822908 112.99445 56.3822908 112.99445 58.8828697"></polygon>
                    <path d="M123.410816,46.4518002 L120.727936,46.4518002 L120.727936,45.8876833 C120.727936,45.3157424 120.583973,44.82126 120.294482,44.404236 C120.004208,43.9879944 119.517549,43.7790913 118.833724,43.7790913 C118.465992,43.7790913 118.167112,43.8440312 117.939431,43.9746935 C117.71175,44.1061382 117.527101,44.2696617 117.387832,44.4652639 C117.246216,44.6780791 117.150762,44.9198435 117.098341,45.1889921 C117.045137,45.4581408 117.019318,45.7405904 117.019318,46.0347762 C117.019318,46.3782537 117.032619,46.663833 117.058438,46.8930788 C117.08504,47.1223246 117.150762,47.3265333 117.256388,47.505705 C117.36123,47.6864415 117.514583,47.8413584 117.716444,47.9720207 C117.917523,48.102683 118.193714,48.2333453 118.544233,48.3640076 L120.595709,49.1245091 C121.192687,49.3373243 121.674651,49.5861303 122.043165,49.872492 C122.41168,50.1580713 122.701171,50.4898127 122.910857,50.8653689 C123.10333,51.2573558 123.234774,51.7025465 123.305191,52.2017234 C123.375608,52.7001179 123.410816,53.2681468 123.410816,53.9050276 C123.410816,54.6412744 123.331793,55.323535 123.173746,55.9525918 C123.016482,56.582431 122.762199,57.1175987 122.41168,57.5588773 C122.043165,58.0165866 121.560419,58.3764947 120.964224,58.6378193 C120.368028,58.8991438 119.640388,59.0298061 118.781303,59.0298061 C118.132686,59.0298061 117.527101,58.9233985 116.966896,58.7113657 C116.405127,58.4985505 115.923163,58.2043647 115.51944,57.8288084 C115.115717,57.4532521 114.795712,57.0151031 114.559424,56.5167086 C114.323137,56.0183142 114.20421,55.4745399 114.20421,54.8861684 L114.20421,53.9543194 L116.887091,53.9543194 L116.887091,54.7390756 C116.887091,55.1967848 117.032619,55.6098967 117.32211,55.9776289 C117.610819,56.3453611 118.097477,56.5292272 118.781303,56.5292272 C119.236665,56.5292272 119.591878,56.4674169 119.846161,56.3453611 C120.101227,56.2225229 120.297611,56.0472633 120.438445,55.8180175 C120.578496,55.5895541 120.662214,55.3157109 120.688816,54.9964881 C120.715418,54.6780477 120.727936,54.322834 120.727936,53.9300647 C120.727936,53.4723555 120.710723,53.0967992 120.675515,52.8026134 C120.639524,52.5076453 120.569889,52.2713578 120.464264,52.0914037 C120.342208,51.9114497 120.179467,51.7643568 119.977606,51.6501251 C119.776527,51.5358934 119.508943,51.4130552 119.175637,51.2816105 L117.256388,50.5461461 C116.098422,50.1048675 115.322273,49.5211904 114.927156,48.7935501 C114.532822,48.0659098 114.335655,47.1544034 114.335655,46.0598133 C114.335655,45.4057194 114.431891,44.7844867 114.625146,44.1961152 C114.818401,43.6077437 115.107893,43.1007427 115.492838,42.6758947 C115.861353,42.2510466 116.330015,41.9114811 116.901174,41.6587631 C117.469985,41.4044802 118.149899,41.2785123 118.939349,41.2785123 C119.605179,41.2785123 120.214676,41.392744 120.767057,41.6212074 C121.319437,41.8504532 121.796707,42.1532455 122.201212,42.5288018 C123.007093,43.3135579 123.410816,44.2125458 123.410816,45.2257654 L123.410816,46.4518002 Z" id="Fill-36" fill="#4D4E4E"></path>
                    <polygon id="Fill-37" fill="#4D4E4E" points="125.488894 58.8822438 128.171775 58.8822438 128.171775 41.4251357 125.488894 41.4251357"></polygon>
                    <path d="M133.300935,54.7637214 C133.300935,55.3685235 133.480106,55.8144966 133.840014,56.1000759 C134.19914,56.3856551 134.624771,56.528836 135.116123,56.528836 C135.606694,56.528836 136.032324,56.3856551 136.39145,56.1000759 C136.750576,55.8144966 136.931312,55.3685235 136.931312,54.7637214 L136.931312,45.544597 C136.931312,44.9397949 136.750576,44.4946042 136.39145,44.2082426 C136.032324,43.9226633 135.606694,43.7787001 135.116123,43.7787001 C134.624771,43.7787001 134.19914,43.9226633 133.840014,44.2082426 C133.480106,44.4946042 133.300935,44.9397949 133.300935,45.544597 L133.300935,54.7637214 Z M130.617272,45.544597 C130.617272,44.8419938 130.749499,44.2199787 131.012388,43.6808989 C131.275278,43.1418192 131.625797,42.691934 132.064729,42.3320259 C132.485665,41.9893308 132.962934,41.7280062 133.498884,41.5480522 C134.033269,41.3680981 134.572349,41.2781211 135.116123,41.2781211 C135.659898,41.2781211 136.198195,41.3680981 136.734145,41.5480522 C137.267748,41.7280062 137.754406,41.9893308 138.19412,42.3320259 C138.615056,42.691934 138.956969,43.1418192 139.219076,43.6808989 C139.481965,44.2199787 139.614192,44.8419938 139.614192,45.544597 L139.614192,54.7637214 C139.614192,55.4991858 139.481965,56.129025 139.219076,56.6516742 C138.956969,57.1751058 138.615056,57.6077779 138.19412,57.9512554 C137.754406,58.3111635 137.267748,58.5803122 136.734145,58.7602662 C136.198195,58.9402203 135.659898,59.0301973 135.116123,59.0301973 C134.572349,59.0301973 134.033269,58.9402203 133.498884,58.7602662 C132.962934,58.5803122 132.485665,58.3111635 132.064729,57.9512554 C131.625797,57.6077779 131.275278,57.1751058 131.012388,56.6516742 C130.749499,56.129025 130.617272,55.4991858 130.617272,54.7637214 L130.617272,45.544597 Z" id="Fill-38" fill="#4D4E4E"></path>
                    <polygon id="Fill-39" fill="#4D4E4E" points="141.981605 58.8828697 141.981605 41.4257617 144.664485 41.4257617 144.664485 56.3822908 149.978607 56.3822908 149.978607 58.8828697"></polygon>
                    <path d="M154.239606,54.7637214 C154.239606,55.3685235 154.418778,55.8144966 154.777903,56.1000759 C155.137029,56.3856551 155.562659,56.528836 156.054012,56.528836 C156.545365,56.528836 156.970213,56.3856551 157.330121,56.1000759 C157.688464,55.8144966 157.869201,55.3685235 157.869201,54.7637214 L157.869201,45.544597 C157.869201,44.9397949 157.688464,44.4946042 157.330121,44.2082426 C156.970213,43.9226633 156.545365,43.7787001 156.054012,43.7787001 C155.562659,43.7787001 155.137029,43.9226633 154.777903,44.2082426 C154.418778,44.4946042 154.239606,44.9397949 154.239606,45.544597 L154.239606,54.7637214 Z M151.555943,45.544597 C151.555943,44.8419938 151.687388,44.2199787 151.950277,43.6808989 C152.213167,43.1418192 152.563686,42.691934 153.002617,42.3320259 C153.423553,41.9893308 153.900823,41.7280062 154.436773,41.5480522 C154.971158,41.3680981 155.510238,41.2781211 156.054012,41.2781211 C156.597786,41.2781211 157.136866,41.3680981 157.672034,41.5480522 C158.206419,41.7280062 158.693078,41.9893308 159.132009,42.3320259 C159.552945,42.691934 159.894858,43.1418192 160.156965,43.6808989 C160.419854,44.2199787 160.552081,44.8419938 160.552081,45.544597 L160.552081,54.7637214 C160.552081,55.4991858 160.419854,56.129025 160.156965,56.6516742 C159.894858,57.1751058 159.552945,57.6077779 159.132009,57.9512554 C158.693078,58.3111635 158.206419,58.5803122 157.672034,58.7602662 C157.136866,58.9402203 156.597786,59.0301973 156.054012,59.0301973 C155.510238,59.0301973 154.971158,58.9402203 154.436773,58.7602662 C153.900823,58.5803122 153.423553,58.3111635 153.002617,57.9512554 C152.563686,57.6077779 152.213167,57.1751058 151.950277,56.6516742 C151.687388,56.129025 151.555943,55.4991858 151.555943,54.7637214 L151.555943,45.544597 Z" id="Fill-40" fill="#4D4E4E"></path>
                    <path d="M162.761291,45.5444405 C162.761291,44.8418373 162.893518,44.2206046 163.156408,43.6815249 C163.419297,43.1416627 163.769816,42.6917776 164.208748,42.3326519 C164.629684,41.9891743 165.106953,41.7278498 165.642903,41.5478957 C166.176506,41.3679417 166.716368,41.2779646 167.260142,41.2779646 C167.803134,41.2779646 168.342996,41.3679417 168.877382,41.5478957 C169.412549,41.7278498 169.898425,41.9891743 170.338139,42.3326519 C170.759075,42.6917776 171.100205,43.1416627 171.363095,43.6815249 C171.625984,44.2206046 171.758211,44.8418373 171.758211,45.5444405 L171.758211,46.4269978 L169.074549,46.4269978 L169.074549,45.5444405 C169.074549,44.9404208 168.894595,44.4944477 168.536251,44.2080861 C168.176343,43.9225068 167.750713,43.779326 167.260142,43.779326 C166.76879,43.779326 166.343159,43.9225068 165.984033,44.2080861 C165.624908,44.4944477 165.445736,44.9404208 165.445736,45.5444405 L165.445736,54.763565 C165.445736,55.3691495 165.624908,55.8143401 165.984033,56.0999194 C166.343159,56.3854987 166.76879,56.5294619 167.260142,56.5294619 C167.750713,56.5294619 168.176343,56.3854987 168.536251,56.0999194 C168.894595,55.8143401 169.074549,55.3691495 169.074549,54.763565 L169.074549,51.4782299 L166.944049,51.4782299 L166.944049,49.2710543 L171.758211,49.2710543 L171.758211,54.763565 C171.758211,55.4990293 171.625984,56.1288685 171.363095,56.6515177 C171.100205,57.1749493 170.759075,57.6076214 170.338139,57.9510989 C169.898425,58.311007 169.412549,58.5809381 168.877382,58.7601098 C168.342996,58.9400638 167.803134,59.0300408 167.260142,59.0300408 C166.716368,59.0300408 166.176506,58.9400638 165.642903,58.7601098 C165.106953,58.5809381 164.629684,58.311007 164.208748,57.9510989 C163.769816,57.6076214 163.419297,57.1749493 163.156408,56.6515177 C162.893518,56.1288685 162.761291,55.4990293 162.761291,54.763565 L162.761291,45.5444405 Z" id="Fill-41" fill="#4D4E4E"></path>
                    <polygon id="Fill-42" fill="#4D4E4E" points="174.204022 58.8822438 176.887684 58.8822438 176.887684 41.4251357 174.204022 41.4251357"></polygon>
                    <path d="M188.171977,46.4518002 L185.489097,46.4518002 L185.489097,45.8876833 C185.489097,45.3157424 185.344351,44.82126 185.055642,44.404236 C184.765369,43.9879944 184.27871,43.7790913 183.594102,43.7790913 C183.227153,43.7790913 182.928272,43.8440312 182.700591,43.9746935 C182.47291,44.1061382 182.28748,44.2696617 182.148211,44.4652639 C182.007377,44.6780791 181.911141,44.9198435 181.859502,45.1889921 C181.806298,45.4581408 181.779696,45.7405904 181.779696,46.0347762 C181.779696,46.3782537 181.793779,46.663833 181.819599,46.8930788 C181.845418,47.1223246 181.911141,47.3265333 182.016766,47.505705 C182.122391,47.6864415 182.275743,47.8413584 182.476822,47.9720207 C182.678684,48.102683 182.954874,48.2333453 183.305394,48.3640076 L185.35687,49.1245091 C185.953848,49.3373243 186.435812,49.5861303 186.804326,49.872492 C187.172841,50.1580713 187.462332,50.4898127 187.672018,50.8653689 C187.86449,51.2573558 187.995935,51.7025465 188.066352,52.2017234 C188.136769,52.7001179 188.171977,53.2681468 188.171977,53.9050276 C188.171977,54.6412744 188.092954,55.323535 187.934907,55.9525918 C187.776861,56.582431 187.52336,57.1175987 187.172841,57.5588773 C186.804326,58.0165866 186.32158,58.3764947 185.725384,58.6378193 C185.128406,58.8991438 184.401548,59.0298061 183.542463,59.0298061 C182.893064,59.0298061 182.28748,58.9233985 181.728057,58.7113657 C181.166288,58.4985505 180.683541,58.2043647 180.280601,57.8288084 C179.876095,57.4532521 179.556872,57.0151031 179.320585,56.5167086 C179.084297,56.0183142 178.965371,55.4745399 178.965371,54.8861684 L178.965371,53.9543194 L181.648251,53.9543194 L181.648251,54.7390756 C181.648251,55.1967848 181.793779,55.6098967 182.082488,55.9776289 C182.37198,56.3453611 182.858638,56.5292272 183.542463,56.5292272 C183.997825,56.5292272 184.353039,56.4674169 184.607322,56.3453611 C184.862387,56.2225229 185.058772,56.0472633 185.199606,55.8180175 C185.339657,55.5895541 185.423374,55.3157109 185.449976,54.9964881 C185.475796,54.6780477 185.489097,54.322834 185.489097,53.9300647 C185.489097,53.4723555 185.471884,53.0967992 185.435893,52.8026134 C185.400685,52.5076453 185.33105,52.2713578 185.225425,52.0914037 C185.102587,51.9114497 184.940628,51.7643568 184.738767,51.6501251 C184.536905,51.5358934 184.270104,51.4130552 183.936798,51.2816105 L182.016766,50.5461461 C180.858801,50.1048675 180.083434,49.5211904 179.688317,48.7935501 C179.293983,48.0659098 179.096816,47.1544034 179.096816,46.0598133 C179.096816,45.4057194 179.193052,44.7844867 179.386307,44.1961152 C179.579562,43.6077437 179.869053,43.1007427 180.253999,42.6758947 C180.622513,42.2510466 181.091176,41.9114811 181.662335,41.6587631 C182.231146,41.4044802 182.911059,41.2785123 183.70051,41.2785123 C184.36634,41.2785123 184.975837,41.392744 185.528217,41.6212074 C186.080598,41.8504532 186.557867,42.1532455 186.96159,42.5288018 C187.768254,43.3135579 188.171977,44.2125458 188.171977,45.2257654 L188.171977,46.4518002 Z" id="Fill-43" fill="#4D4E4E"></path>
                    <polygon id="Fill-44" fill="#4D4E4E" points="191.932704 58.8828697 191.932704 43.7792477 188.828888 43.7792477 188.828888 41.4257617 197.720183 41.4257617 197.720183 43.7792477 194.616366 43.7792477 194.616366 58.8828697"></polygon>
                    <path d="M207.583934,46.4518002 L204.901054,46.4518002 L204.901054,45.8876833 C204.901054,45.3157424 204.756308,44.82126 204.467599,44.404236 C204.177325,43.9879944 203.690667,43.7790913 203.006842,43.7790913 C202.639109,43.7790913 202.340229,43.8440312 202.112548,43.9746935 C201.884867,44.1061382 201.699436,44.2696617 201.56095,44.4652639 C201.419334,44.6780791 201.323098,44.9198435 201.271459,45.1889921 C201.218255,45.4581408 201.191653,45.7405904 201.191653,46.0347762 C201.191653,46.3782537 201.205736,46.663833 201.231556,46.8930788 C201.257375,47.1223246 201.323098,47.3265333 201.429505,47.505705 C201.534348,47.6864415 201.6877,47.8413584 201.889562,47.9720207 C202.090641,48.102683 202.366831,48.2333453 202.71735,48.3640076 L204.768827,49.1245091 C205.365805,49.3373243 205.847768,49.5861303 206.216283,49.872492 C206.584798,50.1580713 206.874289,50.4898127 207.083975,50.8653689 C207.276447,51.2573558 207.407892,51.7025465 207.478309,52.2017234 C207.548725,52.7001179 207.583934,53.2681468 207.583934,53.9050276 C207.583934,54.6412744 207.504911,55.323535 207.346864,55.9525918 C207.188817,56.582431 206.935317,57.1175987 206.584798,57.5588773 C206.216283,58.0165866 205.733537,58.3764947 205.137341,58.6378193 C204.541146,58.8991438 203.813505,59.0298061 202.95442,59.0298061 C202.305803,59.0298061 201.699436,58.9233985 201.140014,58.7113657 C200.578244,58.4985505 200.09628,58.2043647 199.692557,57.8288084 C199.288834,57.4532521 198.968829,57.0151031 198.732542,56.5167086 C198.496254,56.0183142 198.377328,55.4745399 198.377328,54.8861684 L198.377328,53.9543194 L201.060208,53.9543194 L201.060208,54.7390756 C201.060208,55.1967848 201.205736,55.6098967 201.495228,55.9776289 C201.783936,56.3453611 202.270595,56.5292272 202.95442,56.5292272 C203.409782,56.5292272 203.764996,56.4674169 204.019279,56.3453611 C204.274344,56.2225229 204.470729,56.0472633 204.611562,55.8180175 C204.751614,55.5895541 204.835331,55.3157109 204.861933,54.9964881 C204.887753,54.6780477 204.901054,54.322834 204.901054,53.9300647 C204.901054,53.4723555 204.883841,53.0967992 204.84785,52.8026134 C204.812641,52.5076453 204.743007,52.2713578 204.637382,52.0914037 C204.515326,51.9114497 204.352585,51.7643568 204.150723,51.6501251 C203.948862,51.5358934 203.68206,51.4130552 203.348754,51.2816105 L201.429505,50.5461461 C200.27154,50.1048675 199.49539,49.5211904 199.100274,48.7935501 C198.70594,48.0659098 198.508773,47.1544034 198.508773,46.0598133 C198.508773,45.4057194 198.605009,44.7844867 198.798264,44.1961152 C198.991519,43.6077437 199.28101,43.1007427 199.665955,42.6758947 C200.03447,42.2510466 200.503133,41.9114811 201.074292,41.6587631 C201.643103,41.4044802 202.323016,41.2785123 203.112467,41.2785123 C203.778297,41.2785123 204.387793,41.392744 204.940174,41.6212074 C205.492555,41.8504532 205.969824,42.1532455 206.37433,42.5288018 C207.180211,43.3135579 207.583934,44.2125458 207.583934,45.2257654 L207.583934,46.4518002 Z" id="Fill-45" fill="#4D4E4E"></path>
                    <path d="M32.0943835,53.3914544 L30.4638433,56.3090573 C31.4864517,56.1564876 32.4715046,55.98514 33.4244786,55.805186 L32.3447543,53.8475988 L32.0943835,53.3914544 Z" id="Fill-46" fill="#263779"></path>
                    <path d="M21.8749492,56.1035185 C22.2254684,56.0956944 22.5712932,56.0831759 22.9155531,56.0706573 C23.6205035,54.0895979 24.325454,52.1101033 25.0304044,50.1290439 C19.3634166,50.772184 13.2809695,50.0210715 5.7260289,45.5300442 C3.60726552,44.2703658 2.06279029,42.9864328 0.999496552,41.760398 C1.12233475,45.6818315 1.96498917,49.423311 3.40227438,52.8635631 C7.84479228,54.960419 13.903767,56.2834725 21.8749492,56.1035185" id="Fill-47" fill="#263779"></path>
                    <path d="M18.9324657,67.2593397 C19.8244119,64.7556312 20.7147933,62.252705 21.605957,59.7489964 C17.5476019,59.9938904 12.8351529,60.1245527 7.54606855,59.9962376 C9.87842957,63.0225954 12.7467407,65.6264523 16.0125156,67.6708868 C17.0390361,67.5535255 18.0060935,67.4134743 18.9324657,67.2593397" id="Fill-48" fill="#263779"></path>
                    <path d="M38.6058253,63.9398134 L35.3032772,58.3424599 C33.6312693,58.5928307 31.8794557,58.8533729 30.0548781,59.0818363 C29.3780944,59.1663365 28.6559309,59.2500542 27.8993415,59.3314248 L23.5155043,66.6610316 C29.4140852,65.1924501 33.2103333,63.2004369 38.6058253,63.9398134" id="Fill-49" fill="#263779"></path>
                    <path d="M52.3759095,45.7286196 C47.4209138,45.4093967 43.0871507,46.2184076 38.9622908,47.2425809 C39.6946256,49.4575805 40.4261779,51.6725802 41.1569479,53.8867975 C45.9640683,53.1208192 50.0537198,52.7476101 53.8906532,54.0683164 C56.8090385,55.0729294 59.8494796,57.5578602 60.4589762,59.8503184 C62.3563178,57.3591283 63.8898393,54.5854887 64.9852118,51.6052931 C62.4955866,48.496 58.3050044,46.1104351 52.3759095,45.7286196" id="Fill-50" fill="#263779"></path>
                    <path d="M40.8521996,67.825882 C36.6670942,67.2390753 33.142342,68.5691705 28.7099954,69.9031778 C27.1686498,70.3108128 25.6257394,70.7192303 24.0836114,71.1268653 C26.9464457,72.1048765 29.9954933,72.6337849 33.1611198,72.6337849 C36.5223486,72.6337849 39.7513502,72.03133 42.7651894,70.9351751 L40.8521996,67.825882 Z" id="Fill-51" fill="#263779"></path>
                    <path d="M42.3902591,57.6206094 C43.1930106,60.0515539 43.9965446,62.4824985 44.7985137,64.913443 C46.8664205,65.537023 49.1596611,66.4453997 51.7901199,67.7262031 C52.6836309,67.17304 53.6412995,66.5181638 54.629482,65.7443613 C55.9501882,64.7092343 57.0596441,63.6686304 57.9774098,62.7062674 C57.7207796,62.1132015 57.2701121,61.2392507 56.49318,60.3746888 C53.5755771,57.1253445 48.6988223,56.9665155 42.3902591,57.6206094" id="Fill-52" fill="#263779"></path>
                    <path d="M46.5896043,70.3362411 C47.2632584,70.0702221 47.9298708,69.7893373 48.5800526,69.4802857 C47.6779351,69.0812572 46.8165029,68.7612519 45.9848022,68.5046218 C46.1858813,69.1149008 46.3877428,69.7259621 46.5896043,70.3362411" id="Fill-53" fill="#263779"></path>
                    <path d="M15.2786943,37.8976451 L2.40572012,37.2020835 L15.9750382,42.3949316 C15.555667,40.956864 15.3146851,39.4499444 15.2786943,37.8976451" id="Fill-54" fill="#FDD500"></path>
                    <path d="M18.0064065,28.0781783 L3.64450818,17.7472508 L15.8211384,33.136452 C16.283542,31.3259578 17.0283953,29.6265656 18.0064065,28.0781783" id="Fill-55" fill="#FDD500"></path>
                    <path d="M36.2470971,19.3203622 C36.6531673,19.3320983 37.0529783,19.360265 37.4512244,19.3954734 L35.1462477,0.542547841 L33.0947715,19.4791912 C34.1228569,19.3469641 35.1751969,19.2890658 36.2470971,19.3203622" id="Fill-56" fill="#FDD500"></path>
                    <path d="M51.3100338,29.1302836 C52.1918087,30.7443932 52.829472,32.4969892 53.1752967,34.3426919 L66.3127251,19.6780013 L51.3100338,29.1302836 Z" id="Fill-57" fill="#FDD500"></path>
                    <path d="M66.1735345,36.9696299 L53.4687783,37.316237 C53.4726904,37.5713023 53.4742552,37.8263676 53.4664311,38.0837802 C53.4312227,39.2949492 53.2700464,40.4740395 53.0001154,41.6132269 L66.1735345,36.9696299 Z" id="Fill-58" fill="#FDD500"></path>
                    <path d="M45.982142,17.8101565 C46.6659674,18.8445011 47.4812375,20.4249671 47.7762057,22.4654896 C47.7973307,22.6180593 47.8161085,22.7721939 47.8309743,22.9286757 C47.8356687,22.9325877 47.8403632,22.9364998 47.8450576,22.9411942 L53.6090642,5.92692962 L45.982142,17.8101565 Z" id="Fill-59" fill="#FDD500"></path>
                    <path d="M22.9836227,17.4988359 C22.8474835,18.0183555 22.7301222,18.6560187 22.7019555,19.3899183 C22.6471868,20.7857359 22.9366781,21.9272705 23.1987851,22.6776006 C23.569647,22.4178409 23.9749348,22.1533867 24.4146486,21.8928445 C25.0061498,21.5415429 25.5757435,21.2473571 26.1069991,21.0001159 L17.229005,5.11173775 C18.6428179,10.3100627 20.0581957,15.5076052 21.472791,20.7051477 C21.7513286,20.1418133 22.0283014,19.5659603 22.3052741,18.9775888 C22.538432,18.4799767 22.7645482,17.9870591 22.9836227,17.4988359" id="Fill-60" fill="#FDD500"></path>
                    <path d="M37.3794775,13.7353707 C38.0453075,13.9356674 44.6863945,16.0473891 46.4272544,22.0304702 C47.4975898,25.7023153 46.2308698,29.1558683 45.7684661,30.4186764 C45.1284556,32.1626659 44.4469774,33.0436583 42.2804871,36.1685996 C41.0067253,38.0064782 39.1117309,40.774641 36.8137959,44.2743561 C39.8299823,53.5114759 42.8461687,62.7485958 45.8623552,71.9857156 C41.3071704,65.152156 36.7504208,58.3185964 32.195236,51.4850368 C27.7026439,58.1300359 23.2100518,64.7750349 18.7158949,71.4200339 C22.2672491,61.3817274 25.8170384,51.3434208 29.3676101,41.3051142 C28.0461214,40.3701355 24.0354932,37.2780555 22.2985454,31.5500397 C20.8659547,26.826637 21.7430351,22.8308746 22.2038739,21.1815565 C22.3157584,22.6861289 22.7695556,25.9659871 25.1261713,29.0995349 C26.271618,30.6221027 28.3864693,33.4348628 31.9127864,33.905873 C35.7880578,34.4238277 39.5498799,31.8700449 41.2430128,28.9109744 C43.7615872,24.5107065 42.3868947,18.0284485 37.3794775,13.7353707" id="Fill-61" fill="#4D4E4E"></path>
                    <path d="M37.7889904,25.9830437 C37.7889904,28.2708074 35.9315516,30.1251165 33.6398758,30.1251165 C31.3497649,30.1251165 29.4923261,28.2708074 29.4923261,25.9830437 C29.4923261,23.6960624 31.3497649,21.8417532 33.6398758,21.8417532 C35.9315516,21.8417532 37.7889904,23.6960624 37.7889904,25.9830437" id="Fill-62" fill="#4D4E4E"></path>
                </g>
            </g>
        </g>
    </g>
</svg>
